<?xml version="1.0" encoding="utf-8"?>
<svg xmlns="http://www.w3.org/2000/svg" xmlns:xlink="http://www.w3.org/1999/xlink" width="600" height="400" viewBox="0 0 2400 1600">
<defs>
  <clipPath id="clip380">
    <rect x="0" y="0" width="2400" height="1600"/>
  </clipPath>
</defs>
<path clip-path="url(#clip380)" d="M0 1600 L2400 1600 L2400 8.88178e-14 L0 8.88178e-14  Z" fill="#ffffff" fill-rule="evenodd" fill-opacity="1"/>
<defs>
  <clipPath id="clip381">
    <rect x="480" y="0" width="1681" height="1600"/>
  </clipPath>
</defs>
<path clip-path="url(#clip380)" d="M235.283 1423.18 L2352.76 1423.18 L2352.76 123.472 L235.283 123.472  Z" fill="#ffffff" fill-rule="evenodd" fill-opacity="1"/>
<defs>
  <clipPath id="clip382">
    <rect x="235" y="123" width="2118" height="1301"/>
  </clipPath>
</defs>
<polyline clip-path="url(#clip382)" style="stroke:#000000; stroke-linecap:round; stroke-linejoin:round; stroke-width:2; stroke-opacity:0.1; fill:none" points="295.211,1423.18 295.211,123.472 "/>
<polyline clip-path="url(#clip382)" style="stroke:#000000; stroke-linecap:round; stroke-linejoin:round; stroke-width:2; stroke-opacity:0.1; fill:none" points="794.615,1423.18 794.615,123.472 "/>
<polyline clip-path="url(#clip382)" style="stroke:#000000; stroke-linecap:round; stroke-linejoin:round; stroke-width:2; stroke-opacity:0.1; fill:none" points="1294.02,1423.18 1294.02,123.472 "/>
<polyline clip-path="url(#clip382)" style="stroke:#000000; stroke-linecap:round; stroke-linejoin:round; stroke-width:2; stroke-opacity:0.1; fill:none" points="1793.42,1423.18 1793.42,123.472 "/>
<polyline clip-path="url(#clip382)" style="stroke:#000000; stroke-linecap:round; stroke-linejoin:round; stroke-width:2; stroke-opacity:0.1; fill:none" points="2292.83,1423.18 2292.83,123.472 "/>
<polyline clip-path="url(#clip382)" style="stroke:#000000; stroke-linecap:round; stroke-linejoin:round; stroke-width:2; stroke-opacity:0.1; fill:none" points="235.283,1386.4 2352.76,1386.4 "/>
<polyline clip-path="url(#clip382)" style="stroke:#000000; stroke-linecap:round; stroke-linejoin:round; stroke-width:2; stroke-opacity:0.1; fill:none" points="235.283,1113.92 2352.76,1113.92 "/>
<polyline clip-path="url(#clip382)" style="stroke:#000000; stroke-linecap:round; stroke-linejoin:round; stroke-width:2; stroke-opacity:0.1; fill:none" points="235.283,841.445 2352.76,841.445 "/>
<polyline clip-path="url(#clip382)" style="stroke:#000000; stroke-linecap:round; stroke-linejoin:round; stroke-width:2; stroke-opacity:0.1; fill:none" points="235.283,568.969 2352.76,568.969 "/>
<polyline clip-path="url(#clip382)" style="stroke:#000000; stroke-linecap:round; stroke-linejoin:round; stroke-width:2; stroke-opacity:0.1; fill:none" points="235.283,296.494 2352.76,296.494 "/>
<polyline clip-path="url(#clip380)" style="stroke:#000000; stroke-linecap:round; stroke-linejoin:round; stroke-width:4; stroke-opacity:1; fill:none" points="235.283,1423.18 2352.76,1423.18 "/>
<polyline clip-path="url(#clip380)" style="stroke:#000000; stroke-linecap:round; stroke-linejoin:round; stroke-width:4; stroke-opacity:1; fill:none" points="295.211,1423.18 295.211,1404.28 "/>
<polyline clip-path="url(#clip380)" style="stroke:#000000; stroke-linecap:round; stroke-linejoin:round; stroke-width:4; stroke-opacity:1; fill:none" points="794.615,1423.18 794.615,1404.28 "/>
<polyline clip-path="url(#clip380)" style="stroke:#000000; stroke-linecap:round; stroke-linejoin:round; stroke-width:4; stroke-opacity:1; fill:none" points="1294.02,1423.18 1294.02,1404.28 "/>
<polyline clip-path="url(#clip380)" style="stroke:#000000; stroke-linecap:round; stroke-linejoin:round; stroke-width:4; stroke-opacity:1; fill:none" points="1793.42,1423.18 1793.42,1404.28 "/>
<polyline clip-path="url(#clip380)" style="stroke:#000000; stroke-linecap:round; stroke-linejoin:round; stroke-width:4; stroke-opacity:1; fill:none" points="2292.83,1423.18 2292.83,1404.28 "/>
<path clip-path="url(#clip380)" d="M272.596 1454.1 Q268.985 1454.1 267.156 1457.66 Q265.35 1461.2 265.35 1468.33 Q265.35 1475.44 267.156 1479.01 Q268.985 1482.55 272.596 1482.55 Q276.23 1482.55 278.035 1479.01 Q279.864 1475.44 279.864 1468.33 Q279.864 1461.2 278.035 1457.66 Q276.23 1454.1 272.596 1454.1 M272.596 1450.39 Q278.406 1450.39 281.461 1455 Q284.54 1459.58 284.54 1468.33 Q284.54 1477.06 281.461 1481.67 Q278.406 1486.25 272.596 1486.25 Q266.786 1486.25 263.707 1481.67 Q260.651 1477.06 260.651 1468.33 Q260.651 1459.58 263.707 1455 Q266.786 1450.39 272.596 1450.39 Z" fill="#000000" fill-rule="nonzero" fill-opacity="1" /><path clip-path="url(#clip380)" d="M292.758 1479.7 L297.642 1479.7 L297.642 1485.58 L292.758 1485.58 L292.758 1479.7 Z" fill="#000000" fill-rule="nonzero" fill-opacity="1" /><path clip-path="url(#clip380)" d="M317.827 1454.1 Q314.216 1454.1 312.387 1457.66 Q310.582 1461.2 310.582 1468.33 Q310.582 1475.44 312.387 1479.01 Q314.216 1482.55 317.827 1482.55 Q321.461 1482.55 323.267 1479.01 Q325.095 1475.44 325.095 1468.33 Q325.095 1461.2 323.267 1457.66 Q321.461 1454.1 317.827 1454.1 M317.827 1450.39 Q323.637 1450.39 326.693 1455 Q329.771 1459.58 329.771 1468.33 Q329.771 1477.06 326.693 1481.67 Q323.637 1486.25 317.827 1486.25 Q312.017 1486.25 308.938 1481.67 Q305.883 1477.06 305.883 1468.33 Q305.883 1459.58 308.938 1455 Q312.017 1450.39 317.827 1450.39 Z" fill="#000000" fill-rule="nonzero" fill-opacity="1" /><path clip-path="url(#clip380)" d="M766.352 1481.64 L782.671 1481.64 L782.671 1485.58 L760.727 1485.58 L760.727 1481.64 Q763.389 1478.89 767.972 1474.26 Q772.578 1469.61 773.759 1468.27 Q776.004 1465.74 776.884 1464.01 Q777.787 1462.25 777.787 1460.56 Q777.787 1457.8 775.842 1456.07 Q773.921 1454.33 770.819 1454.33 Q768.62 1454.33 766.166 1455.09 Q763.736 1455.86 760.958 1457.41 L760.958 1452.69 Q763.782 1451.55 766.236 1450.97 Q768.69 1450.39 770.727 1450.39 Q776.097 1450.39 779.291 1453.08 Q782.486 1455.77 782.486 1460.26 Q782.486 1462.39 781.676 1464.31 Q780.889 1466.2 778.782 1468.8 Q778.203 1469.47 775.102 1472.69 Q772 1475.88 766.352 1481.64 Z" fill="#000000" fill-rule="nonzero" fill-opacity="1" /><path clip-path="url(#clip380)" d="M792.486 1479.7 L797.37 1479.7 L797.37 1485.58 L792.486 1485.58 L792.486 1479.7 Z" fill="#000000" fill-rule="nonzero" fill-opacity="1" /><path clip-path="url(#clip380)" d="M807.601 1451.02 L825.958 1451.02 L825.958 1454.96 L811.884 1454.96 L811.884 1463.43 Q812.902 1463.08 813.921 1462.92 Q814.939 1462.73 815.958 1462.73 Q821.745 1462.73 825.124 1465.9 Q828.504 1469.08 828.504 1474.49 Q828.504 1480.07 825.032 1483.17 Q821.56 1486.25 815.24 1486.25 Q813.064 1486.25 810.796 1485.88 Q808.55 1485.51 806.143 1484.77 L806.143 1480.07 Q808.226 1481.2 810.449 1481.76 Q812.671 1482.32 815.148 1482.32 Q819.152 1482.32 821.49 1480.21 Q823.828 1478.1 823.828 1474.49 Q823.828 1470.88 821.49 1468.77 Q819.152 1466.67 815.148 1466.67 Q813.273 1466.67 811.398 1467.08 Q809.546 1467.5 807.601 1468.38 L807.601 1451.02 Z" fill="#000000" fill-rule="nonzero" fill-opacity="1" /><path clip-path="url(#clip380)" d="M1261.18 1451.02 L1279.54 1451.02 L1279.54 1454.96 L1265.47 1454.96 L1265.47 1463.43 Q1266.48 1463.08 1267.5 1462.92 Q1268.52 1462.73 1269.54 1462.73 Q1275.33 1462.73 1278.71 1465.9 Q1282.09 1469.08 1282.09 1474.49 Q1282.09 1480.07 1278.61 1483.17 Q1275.14 1486.25 1268.82 1486.25 Q1266.65 1486.25 1264.38 1485.88 Q1262.13 1485.51 1259.73 1484.77 L1259.73 1480.07 Q1261.81 1481.2 1264.03 1481.76 Q1266.25 1482.32 1268.73 1482.32 Q1272.73 1482.32 1275.07 1480.21 Q1277.41 1478.1 1277.41 1474.49 Q1277.41 1470.88 1275.07 1468.77 Q1272.73 1466.67 1268.73 1466.67 Q1266.86 1466.67 1264.98 1467.08 Q1263.13 1467.5 1261.18 1468.38 L1261.18 1451.02 Z" fill="#000000" fill-rule="nonzero" fill-opacity="1" /><path clip-path="url(#clip380)" d="M1291.3 1479.7 L1296.18 1479.7 L1296.18 1485.58 L1291.3 1485.58 L1291.3 1479.7 Z" fill="#000000" fill-rule="nonzero" fill-opacity="1" /><path clip-path="url(#clip380)" d="M1316.37 1454.1 Q1312.76 1454.1 1310.93 1457.66 Q1309.12 1461.2 1309.12 1468.33 Q1309.12 1475.44 1310.93 1479.01 Q1312.76 1482.55 1316.37 1482.55 Q1320 1482.55 1321.81 1479.01 Q1323.64 1475.44 1323.64 1468.33 Q1323.64 1461.2 1321.81 1457.66 Q1320 1454.1 1316.37 1454.1 M1316.37 1450.39 Q1322.18 1450.39 1325.23 1455 Q1328.31 1459.58 1328.31 1468.33 Q1328.31 1477.06 1325.23 1481.67 Q1322.18 1486.25 1316.37 1486.25 Q1310.56 1486.25 1307.48 1481.67 Q1304.42 1477.06 1304.42 1468.33 Q1304.42 1459.58 1307.48 1455 Q1310.56 1450.39 1316.37 1450.39 Z" fill="#000000" fill-rule="nonzero" fill-opacity="1" /><path clip-path="url(#clip380)" d="M1759.74 1451.02 L1781.97 1451.02 L1781.97 1453.01 L1769.42 1485.58 L1764.53 1485.58 L1776.34 1454.96 L1759.74 1454.96 L1759.74 1451.02 Z" fill="#000000" fill-rule="nonzero" fill-opacity="1" /><path clip-path="url(#clip380)" d="M1791.09 1479.7 L1795.97 1479.7 L1795.97 1485.58 L1791.09 1485.58 L1791.09 1479.7 Z" fill="#000000" fill-rule="nonzero" fill-opacity="1" /><path clip-path="url(#clip380)" d="M1806.2 1451.02 L1824.56 1451.02 L1824.56 1454.96 L1810.48 1454.96 L1810.48 1463.43 Q1811.5 1463.08 1812.52 1462.92 Q1813.54 1462.73 1814.56 1462.73 Q1820.34 1462.73 1823.72 1465.9 Q1827.1 1469.08 1827.1 1474.49 Q1827.1 1480.07 1823.63 1483.17 Q1820.16 1486.25 1813.84 1486.25 Q1811.66 1486.25 1809.4 1485.88 Q1807.15 1485.51 1804.74 1484.77 L1804.74 1480.07 Q1806.83 1481.2 1809.05 1481.76 Q1811.27 1482.32 1813.75 1482.32 Q1817.75 1482.32 1820.09 1480.21 Q1822.43 1478.1 1822.43 1474.49 Q1822.43 1470.88 1820.09 1468.77 Q1817.75 1466.67 1813.75 1466.67 Q1811.87 1466.67 1810 1467.08 Q1808.15 1467.5 1806.2 1468.38 L1806.2 1451.02 Z" fill="#000000" fill-rule="nonzero" fill-opacity="1" /><path clip-path="url(#clip380)" d="M2244.9 1481.64 L2252.54 1481.64 L2252.54 1455.28 L2244.23 1456.95 L2244.23 1452.69 L2252.49 1451.02 L2257.17 1451.02 L2257.17 1481.64 L2264.81 1481.64 L2264.81 1485.58 L2244.9 1485.58 L2244.9 1481.64 Z" fill="#000000" fill-rule="nonzero" fill-opacity="1" /><path clip-path="url(#clip380)" d="M2284.25 1454.1 Q2280.64 1454.1 2278.81 1457.66 Q2277.01 1461.2 2277.01 1468.33 Q2277.01 1475.44 2278.81 1479.01 Q2280.64 1482.55 2284.25 1482.55 Q2287.89 1482.55 2289.69 1479.01 Q2291.52 1475.44 2291.52 1468.33 Q2291.52 1461.2 2289.69 1457.66 Q2287.89 1454.1 2284.25 1454.1 M2284.25 1450.39 Q2290.06 1450.39 2293.12 1455 Q2296.2 1459.58 2296.2 1468.33 Q2296.2 1477.06 2293.12 1481.67 Q2290.06 1486.25 2284.25 1486.25 Q2278.44 1486.25 2275.36 1481.67 Q2272.31 1477.06 2272.31 1468.33 Q2272.31 1459.58 2275.36 1455 Q2278.44 1450.39 2284.25 1450.39 Z" fill="#000000" fill-rule="nonzero" fill-opacity="1" /><path clip-path="url(#clip380)" d="M2304.41 1479.7 L2309.3 1479.7 L2309.3 1485.58 L2304.41 1485.58 L2304.41 1479.7 Z" fill="#000000" fill-rule="nonzero" fill-opacity="1" /><path clip-path="url(#clip380)" d="M2329.48 1454.1 Q2325.87 1454.1 2324.04 1457.66 Q2322.24 1461.2 2322.24 1468.33 Q2322.24 1475.44 2324.04 1479.01 Q2325.87 1482.55 2329.48 1482.55 Q2333.12 1482.55 2334.92 1479.01 Q2336.75 1475.44 2336.75 1468.33 Q2336.75 1461.2 2334.92 1457.66 Q2333.12 1454.1 2329.48 1454.1 M2329.48 1450.39 Q2335.29 1450.39 2338.35 1455 Q2341.43 1459.58 2341.43 1468.33 Q2341.43 1477.06 2338.35 1481.67 Q2335.29 1486.25 2329.48 1486.25 Q2323.67 1486.25 2320.59 1481.67 Q2317.54 1477.06 2317.54 1468.33 Q2317.54 1459.58 2320.59 1455 Q2323.67 1450.39 2329.48 1450.39 Z" fill="#000000" fill-rule="nonzero" fill-opacity="1" /><path clip-path="url(#clip380)" d="M1119.71 1520.52 L1159.91 1520.52 L1159.91 1525.93 L1143.04 1525.93 L1143.04 1568.04 L1136.58 1568.04 L1136.58 1525.93 L1119.71 1525.93 L1119.71 1520.52 Z" fill="#000000" fill-rule="nonzero" fill-opacity="1" /><path clip-path="url(#clip380)" d="M1163.86 1532.4 L1169.71 1532.4 L1169.71 1568.04 L1163.86 1568.04 L1163.86 1532.4 M1163.86 1518.52 L1169.71 1518.52 L1169.71 1525.93 L1163.86 1525.93 L1163.86 1518.52 Z" fill="#000000" fill-rule="nonzero" fill-opacity="1" /><path clip-path="url(#clip380)" d="M1209.72 1539.24 Q1211.92 1535.29 1214.97 1533.41 Q1218.03 1531.54 1222.17 1531.54 Q1227.74 1531.54 1230.76 1535.45 Q1233.78 1539.33 1233.78 1546.53 L1233.78 1568.04 L1227.9 1568.04 L1227.9 1546.72 Q1227.9 1541.59 1226.08 1539.11 Q1224.27 1536.63 1220.54 1536.63 Q1215.99 1536.63 1213.35 1539.65 Q1210.71 1542.68 1210.71 1547.9 L1210.71 1568.04 L1204.82 1568.04 L1204.82 1546.72 Q1204.82 1541.56 1203.01 1539.11 Q1201.19 1536.63 1197.4 1536.63 Q1192.92 1536.63 1190.27 1539.68 Q1187.63 1542.71 1187.63 1547.9 L1187.63 1568.04 L1181.74 1568.04 L1181.74 1532.4 L1187.63 1532.4 L1187.63 1537.93 Q1189.64 1534.66 1192.44 1533.1 Q1195.24 1531.54 1199.09 1531.54 Q1202.97 1531.54 1205.68 1533.51 Q1208.42 1535.48 1209.72 1539.24 Z" fill="#000000" fill-rule="nonzero" fill-opacity="1" /><path clip-path="url(#clip380)" d="M1275.96 1548.76 L1275.96 1551.62 L1249.03 1551.62 Q1249.41 1557.67 1252.66 1560.85 Q1255.94 1564 1261.76 1564 Q1265.13 1564 1268.29 1563.17 Q1271.47 1562.35 1274.59 1560.69 L1274.59 1566.23 Q1271.44 1567.57 1268.13 1568.27 Q1264.82 1568.97 1261.41 1568.97 Q1252.88 1568.97 1247.88 1564 Q1242.92 1559.04 1242.92 1550.57 Q1242.92 1541.82 1247.63 1536.69 Q1252.37 1531.54 1260.39 1531.54 Q1267.59 1531.54 1271.76 1536.18 Q1275.96 1540.8 1275.96 1548.76 M1270.1 1547.04 Q1270.04 1542.23 1267.39 1539.37 Q1264.78 1536.5 1260.46 1536.5 Q1255.55 1536.5 1252.59 1539.27 Q1249.67 1542.04 1249.22 1547.07 L1270.1 1547.04 Z" fill="#000000" fill-rule="nonzero" fill-opacity="1" /><path clip-path="url(#clip380)" d="M1320.36 1518.58 Q1316.09 1525.9 1314.02 1533.06 Q1311.95 1540.23 1311.95 1547.58 Q1311.95 1554.93 1314.02 1562.16 Q1316.12 1569.35 1320.36 1576.64 L1315.26 1576.64 Q1310.49 1569.16 1308.1 1561.93 Q1305.75 1554.71 1305.75 1547.58 Q1305.75 1540.48 1308.1 1533.29 Q1310.46 1526.09 1315.26 1518.58 L1320.36 1518.58 Z" fill="#000000" fill-rule="nonzero" fill-opacity="1" /><path clip-path="url(#clip380)" d="M1359.47 1539.24 Q1361.67 1535.29 1364.73 1533.41 Q1367.78 1531.54 1371.92 1531.54 Q1377.49 1531.54 1380.51 1535.45 Q1383.54 1539.33 1383.54 1546.53 L1383.54 1568.04 L1377.65 1568.04 L1377.65 1546.72 Q1377.65 1541.59 1375.83 1539.11 Q1374.02 1536.63 1370.3 1536.63 Q1365.74 1536.63 1363.1 1539.65 Q1360.46 1542.68 1360.46 1547.9 L1360.46 1568.04 L1354.57 1568.04 L1354.57 1546.72 Q1354.57 1541.56 1352.76 1539.11 Q1350.94 1536.63 1347.16 1536.63 Q1342.67 1536.63 1340.03 1539.68 Q1337.39 1542.71 1337.39 1547.9 L1337.39 1568.04 L1331.5 1568.04 L1331.5 1532.4 L1337.39 1532.4 L1337.39 1537.93 Q1339.39 1534.66 1342.19 1533.1 Q1344.99 1531.54 1348.84 1531.54 Q1352.73 1531.54 1355.43 1533.51 Q1358.17 1535.48 1359.47 1539.24 Z" fill="#000000" fill-rule="nonzero" fill-opacity="1" /><path clip-path="url(#clip380)" d="M1395.22 1532.4 L1401.07 1532.4 L1401.07 1568.04 L1395.22 1568.04 L1395.22 1532.4 M1395.22 1518.52 L1401.07 1518.52 L1401.07 1525.93 L1395.22 1525.93 L1395.22 1518.52 Z" fill="#000000" fill-rule="nonzero" fill-opacity="1" /><path clip-path="url(#clip380)" d="M1442.96 1546.53 L1442.96 1568.04 L1437.1 1568.04 L1437.1 1546.72 Q1437.1 1541.66 1435.13 1539.14 Q1433.16 1536.63 1429.21 1536.63 Q1424.47 1536.63 1421.73 1539.65 Q1418.99 1542.68 1418.99 1547.9 L1418.99 1568.04 L1413.11 1568.04 L1413.11 1532.4 L1418.99 1532.4 L1418.99 1537.93 Q1421.09 1534.72 1423.93 1533.13 Q1426.79 1531.54 1430.52 1531.54 Q1436.66 1531.54 1439.81 1535.36 Q1442.96 1539.14 1442.96 1546.53 Z" fill="#000000" fill-rule="nonzero" fill-opacity="1" /><path clip-path="url(#clip380)" d="M1453.72 1518.58 L1458.81 1518.58 Q1463.59 1526.09 1465.94 1533.29 Q1468.33 1540.48 1468.33 1547.58 Q1468.33 1554.71 1465.94 1561.93 Q1463.59 1569.16 1458.81 1576.64 L1453.72 1576.64 Q1457.95 1569.35 1460.02 1562.16 Q1462.12 1554.93 1462.12 1547.58 Q1462.12 1540.23 1460.02 1533.06 Q1457.95 1525.9 1453.72 1518.58 Z" fill="#000000" fill-rule="nonzero" fill-opacity="1" /><polyline clip-path="url(#clip380)" style="stroke:#000000; stroke-linecap:round; stroke-linejoin:round; stroke-width:4; stroke-opacity:1; fill:none" points="235.283,1423.18 235.283,123.472 "/>
<polyline clip-path="url(#clip380)" style="stroke:#000000; stroke-linecap:round; stroke-linejoin:round; stroke-width:4; stroke-opacity:1; fill:none" points="235.283,1386.4 254.18,1386.4 "/>
<polyline clip-path="url(#clip380)" style="stroke:#000000; stroke-linecap:round; stroke-linejoin:round; stroke-width:4; stroke-opacity:1; fill:none" points="235.283,1113.92 254.18,1113.92 "/>
<polyline clip-path="url(#clip380)" style="stroke:#000000; stroke-linecap:round; stroke-linejoin:round; stroke-width:4; stroke-opacity:1; fill:none" points="235.283,841.445 254.18,841.445 "/>
<polyline clip-path="url(#clip380)" style="stroke:#000000; stroke-linecap:round; stroke-linejoin:round; stroke-width:4; stroke-opacity:1; fill:none" points="235.283,568.969 254.18,568.969 "/>
<polyline clip-path="url(#clip380)" style="stroke:#000000; stroke-linecap:round; stroke-linejoin:round; stroke-width:4; stroke-opacity:1; fill:none" points="235.283,296.494 254.18,296.494 "/>
<path clip-path="url(#clip380)" d="M187.338 1372.19 Q183.727 1372.19 181.899 1375.76 Q180.093 1379.3 180.093 1386.43 Q180.093 1393.54 181.899 1397.1 Q183.727 1400.64 187.338 1400.64 Q190.973 1400.64 192.778 1397.1 Q194.607 1393.54 194.607 1386.43 Q194.607 1379.3 192.778 1375.76 Q190.973 1372.19 187.338 1372.19 M187.338 1368.49 Q193.149 1368.49 196.204 1373.1 Q199.283 1377.68 199.283 1386.43 Q199.283 1395.16 196.204 1399.76 Q193.149 1404.35 187.338 1404.35 Q181.528 1404.35 178.45 1399.76 Q175.394 1395.16 175.394 1386.43 Q175.394 1377.68 178.45 1373.1 Q181.528 1368.49 187.338 1368.49 Z" fill="#000000" fill-rule="nonzero" fill-opacity="1" /><path clip-path="url(#clip380)" d="M117.825 1127.27 L125.464 1127.27 L125.464 1100.9 L117.154 1102.57 L117.154 1098.31 L125.418 1096.64 L130.093 1096.64 L130.093 1127.27 L137.732 1127.27 L137.732 1131.2 L117.825 1131.2 L117.825 1127.27 Z" fill="#000000" fill-rule="nonzero" fill-opacity="1" /><path clip-path="url(#clip380)" d="M157.177 1099.72 Q153.566 1099.72 151.737 1103.28 Q149.931 1106.83 149.931 1113.95 Q149.931 1121.06 151.737 1124.63 Q153.566 1128.17 157.177 1128.17 Q160.811 1128.17 162.616 1124.63 Q164.445 1121.06 164.445 1113.95 Q164.445 1106.83 162.616 1103.28 Q160.811 1099.72 157.177 1099.72 M157.177 1096.02 Q162.987 1096.02 166.042 1100.62 Q169.121 1105.21 169.121 1113.95 Q169.121 1122.68 166.042 1127.29 Q162.987 1131.87 157.177 1131.87 Q151.366 1131.87 148.288 1127.29 Q145.232 1122.68 145.232 1113.95 Q145.232 1105.21 148.288 1100.62 Q151.366 1096.02 157.177 1096.02 Z" fill="#000000" fill-rule="nonzero" fill-opacity="1" /><path clip-path="url(#clip380)" d="M187.338 1099.72 Q183.727 1099.72 181.899 1103.28 Q180.093 1106.83 180.093 1113.95 Q180.093 1121.06 181.899 1124.63 Q183.727 1128.17 187.338 1128.17 Q190.973 1128.17 192.778 1124.63 Q194.607 1121.06 194.607 1113.95 Q194.607 1106.83 192.778 1103.28 Q190.973 1099.72 187.338 1099.72 M187.338 1096.02 Q193.149 1096.02 196.204 1100.62 Q199.283 1105.21 199.283 1113.95 Q199.283 1122.68 196.204 1127.29 Q193.149 1131.87 187.338 1131.87 Q181.528 1131.87 178.45 1127.29 Q175.394 1122.68 175.394 1113.95 Q175.394 1105.21 178.45 1100.62 Q181.528 1096.02 187.338 1096.02 Z" fill="#000000" fill-rule="nonzero" fill-opacity="1" /><path clip-path="url(#clip380)" d="M121.043 854.79 L137.362 854.79 L137.362 858.725 L115.418 858.725 L115.418 854.79 Q118.08 852.035 122.663 847.405 Q127.269 842.753 128.45 841.41 Q130.695 838.887 131.575 837.151 Q132.478 835.392 132.478 833.702 Q132.478 830.947 130.533 829.211 Q128.612 827.475 125.51 827.475 Q123.311 827.475 120.857 828.239 Q118.427 829.003 115.649 830.554 L115.649 825.831 Q118.473 824.697 120.927 824.119 Q123.38 823.54 125.418 823.54 Q130.788 823.54 133.982 826.225 Q137.177 828.91 137.177 833.401 Q137.177 835.531 136.367 837.452 Q135.579 839.35 133.473 841.943 Q132.894 842.614 129.792 845.831 Q126.691 849.026 121.043 854.79 Z" fill="#000000" fill-rule="nonzero" fill-opacity="1" /><path clip-path="url(#clip380)" d="M157.177 827.244 Q153.566 827.244 151.737 830.808 Q149.931 834.35 149.931 841.48 Q149.931 848.586 151.737 852.151 Q153.566 855.692 157.177 855.692 Q160.811 855.692 162.616 852.151 Q164.445 848.586 164.445 841.48 Q164.445 834.35 162.616 830.808 Q160.811 827.244 157.177 827.244 M157.177 823.54 Q162.987 823.54 166.042 828.146 Q169.121 832.73 169.121 841.48 Q169.121 850.206 166.042 854.813 Q162.987 859.396 157.177 859.396 Q151.366 859.396 148.288 854.813 Q145.232 850.206 145.232 841.48 Q145.232 832.73 148.288 828.146 Q151.366 823.54 157.177 823.54 Z" fill="#000000" fill-rule="nonzero" fill-opacity="1" /><path clip-path="url(#clip380)" d="M187.338 827.244 Q183.727 827.244 181.899 830.808 Q180.093 834.35 180.093 841.48 Q180.093 848.586 181.899 852.151 Q183.727 855.692 187.338 855.692 Q190.973 855.692 192.778 852.151 Q194.607 848.586 194.607 841.48 Q194.607 834.35 192.778 830.808 Q190.973 827.244 187.338 827.244 M187.338 823.54 Q193.149 823.54 196.204 828.146 Q199.283 832.73 199.283 841.48 Q199.283 850.206 196.204 854.813 Q193.149 859.396 187.338 859.396 Q181.528 859.396 178.45 854.813 Q175.394 850.206 175.394 841.48 Q175.394 832.73 178.45 828.146 Q181.528 823.54 187.338 823.54 Z" fill="#000000" fill-rule="nonzero" fill-opacity="1" /><path clip-path="url(#clip380)" d="M131.181 567.615 Q134.538 568.333 136.413 570.601 Q138.311 572.87 138.311 576.203 Q138.311 581.319 134.792 584.12 Q131.274 586.921 124.793 586.921 Q122.617 586.921 120.302 586.481 Q118.01 586.064 115.556 585.208 L115.556 580.694 Q117.501 581.828 119.816 582.407 Q122.13 582.986 124.654 582.986 Q129.052 582.986 131.343 581.249 Q133.658 579.513 133.658 576.203 Q133.658 573.148 131.505 571.435 Q129.376 569.699 125.556 569.699 L121.529 569.699 L121.529 565.856 L125.742 565.856 Q129.191 565.856 131.019 564.49 Q132.848 563.101 132.848 560.509 Q132.848 557.847 130.95 556.435 Q129.075 555 125.556 555 Q123.635 555 121.436 555.416 Q119.237 555.833 116.598 556.713 L116.598 552.546 Q119.26 551.805 121.575 551.435 Q123.913 551.064 125.973 551.064 Q131.297 551.064 134.399 553.495 Q137.501 555.902 137.501 560.023 Q137.501 562.893 135.857 564.884 Q134.214 566.851 131.181 567.615 Z" fill="#000000" fill-rule="nonzero" fill-opacity="1" /><path clip-path="url(#clip380)" d="M157.177 554.768 Q153.566 554.768 151.737 558.333 Q149.931 561.875 149.931 569.004 Q149.931 576.111 151.737 579.675 Q153.566 583.217 157.177 583.217 Q160.811 583.217 162.616 579.675 Q164.445 576.111 164.445 569.004 Q164.445 561.875 162.616 558.333 Q160.811 554.768 157.177 554.768 M157.177 551.064 Q162.987 551.064 166.042 555.671 Q169.121 560.254 169.121 569.004 Q169.121 577.731 166.042 582.337 Q162.987 586.921 157.177 586.921 Q151.366 586.921 148.288 582.337 Q145.232 577.731 145.232 569.004 Q145.232 560.254 148.288 555.671 Q151.366 551.064 157.177 551.064 Z" fill="#000000" fill-rule="nonzero" fill-opacity="1" /><path clip-path="url(#clip380)" d="M187.338 554.768 Q183.727 554.768 181.899 558.333 Q180.093 561.875 180.093 569.004 Q180.093 576.111 181.899 579.675 Q183.727 583.217 187.338 583.217 Q190.973 583.217 192.778 579.675 Q194.607 576.111 194.607 569.004 Q194.607 561.875 192.778 558.333 Q190.973 554.768 187.338 554.768 M187.338 551.064 Q193.149 551.064 196.204 555.671 Q199.283 560.254 199.283 569.004 Q199.283 577.731 196.204 582.337 Q193.149 586.921 187.338 586.921 Q181.528 586.921 178.45 582.337 Q175.394 577.731 175.394 569.004 Q175.394 560.254 178.45 555.671 Q181.528 551.064 187.338 551.064 Z" fill="#000000" fill-rule="nonzero" fill-opacity="1" /><path clip-path="url(#clip380)" d="M129.862 283.288 L118.056 301.737 L129.862 301.737 L129.862 283.288 M128.635 279.214 L134.515 279.214 L134.515 301.737 L139.445 301.737 L139.445 305.626 L134.515 305.626 L134.515 313.774 L129.862 313.774 L129.862 305.626 L114.26 305.626 L114.26 301.112 L128.635 279.214 Z" fill="#000000" fill-rule="nonzero" fill-opacity="1" /><path clip-path="url(#clip380)" d="M157.177 282.293 Q153.566 282.293 151.737 285.857 Q149.931 289.399 149.931 296.529 Q149.931 303.635 151.737 307.2 Q153.566 310.742 157.177 310.742 Q160.811 310.742 162.616 307.2 Q164.445 303.635 164.445 296.529 Q164.445 289.399 162.616 285.857 Q160.811 282.293 157.177 282.293 M157.177 278.589 Q162.987 278.589 166.042 283.195 Q169.121 287.779 169.121 296.529 Q169.121 305.256 166.042 309.862 Q162.987 314.445 157.177 314.445 Q151.366 314.445 148.288 309.862 Q145.232 305.256 145.232 296.529 Q145.232 287.779 148.288 283.195 Q151.366 278.589 157.177 278.589 Z" fill="#000000" fill-rule="nonzero" fill-opacity="1" /><path clip-path="url(#clip380)" d="M187.338 282.293 Q183.727 282.293 181.899 285.857 Q180.093 289.399 180.093 296.529 Q180.093 303.635 181.899 307.2 Q183.727 310.742 187.338 310.742 Q190.973 310.742 192.778 307.2 Q194.607 303.635 194.607 296.529 Q194.607 289.399 192.778 285.857 Q190.973 282.293 187.338 282.293 M187.338 278.589 Q193.149 278.589 196.204 283.195 Q199.283 287.779 199.283 296.529 Q199.283 305.256 196.204 309.862 Q193.149 314.445 187.338 314.445 Q181.528 314.445 178.45 309.862 Q175.394 305.256 175.394 296.529 Q175.394 287.779 178.45 283.195 Q181.528 278.589 187.338 278.589 Z" fill="#000000" fill-rule="nonzero" fill-opacity="1" /><path clip-path="url(#clip380)" d="M16.4842 904.38 L16.4842 895.723 L56.238 874.652 L16.4842 874.652 L16.4842 868.414 L64.0042 868.414 L64.0042 877.071 L24.2503 898.142 L64.0042 898.142 L64.0042 904.38 L16.4842 904.38 Z" fill="#000000" fill-rule="nonzero" fill-opacity="1" /><path clip-path="url(#clip380)" d="M44.7161 825.382 L47.5806 825.382 L47.5806 852.308 Q53.6281 851.927 56.8109 848.68 Q59.9619 845.402 59.9619 839.577 Q59.9619 836.203 59.1344 833.052 Q58.3069 829.869 56.6518 826.75 L62.1899 826.75 Q63.5267 829.901 64.227 833.211 Q64.9272 836.522 64.9272 839.927 Q64.9272 848.457 59.9619 853.454 Q54.9967 858.42 46.5303 858.42 Q37.7774 858.42 32.6531 853.709 Q27.4968 848.966 27.4968 840.946 Q27.4968 833.752 32.1438 829.583 Q36.7589 825.382 44.7161 825.382 M42.9973 831.238 Q38.1912 831.302 35.3266 833.943 Q32.4621 836.553 32.4621 840.882 Q32.4621 845.784 35.2312 848.744 Q38.0002 851.672 43.0292 852.118 L42.9973 831.238 Z" fill="#000000" fill-rule="nonzero" fill-opacity="1" /><path clip-path="url(#clip380)" d="M18.2347 809.977 L28.3562 809.977 L28.3562 797.914 L32.9077 797.914 L32.9077 809.977 L52.2594 809.977 Q56.6199 809.977 57.8613 808.799 Q59.1026 807.589 59.1026 803.929 L59.1026 797.914 L64.0042 797.914 L64.0042 803.929 Q64.0042 810.709 61.4897 813.287 Q58.9434 815.865 52.2594 815.865 L32.9077 815.865 L32.9077 820.162 L28.3562 820.162 L28.3562 815.865 L18.2347 815.865 L18.2347 809.977 Z" fill="#000000" fill-rule="nonzero" fill-opacity="1" /><path clip-path="url(#clip380)" d="M16.4842 769.236 L16.4842 741.927 L21.895 741.927 L21.895 762.807 L35.8996 762.807 L35.8996 743.964 L41.3104 743.964 L41.3104 762.807 L64.0042 762.807 L64.0042 769.236 L16.4842 769.236 Z" fill="#000000" fill-rule="nonzero" fill-opacity="1" /><path clip-path="url(#clip380)" d="M14.479 731.997 L14.479 726.14 L64.0042 726.14 L64.0042 731.997 L14.479 731.997 Z" fill="#000000" fill-rule="nonzero" fill-opacity="1" /><path clip-path="url(#clip380)" d="M49.9359 714.491 L28.3562 714.491 L28.3562 708.634 L49.7131 708.634 Q54.7739 708.634 57.3202 706.661 Q59.8346 704.688 59.8346 700.741 Q59.8346 695.999 56.8109 693.261 Q53.7872 690.492 48.5673 690.492 L28.3562 690.492 L28.3562 684.636 L64.0042 684.636 L64.0042 690.492 L58.5296 690.492 Q61.7762 692.625 63.3676 695.457 Q64.9272 698.258 64.9272 701.982 Q64.9272 708.125 61.1078 711.308 Q57.2883 714.491 49.9359 714.491 M27.4968 699.754 L27.4968 699.754 Z" fill="#000000" fill-rule="nonzero" fill-opacity="1" /><path clip-path="url(#clip380)" d="M28.3562 642.94 L45.7028 655.831 L64.0042 642.272 L64.0042 649.179 L49.9996 659.555 L64.0042 669.931 L64.0042 676.838 L45.3526 662.992 L28.3562 675.66 L28.3562 668.753 L41.0558 659.3 L28.3562 649.847 L28.3562 642.94 Z" fill="#000000" fill-rule="nonzero" fill-opacity="1" /><path clip-path="url(#clip380)" d="M768.961 12.096 L779.98 12.096 L806.797 62.6918 L806.797 12.096 L814.737 12.096 L814.737 72.576 L803.718 72.576 L776.901 21.9802 L776.901 72.576 L768.961 72.576 L768.961 12.096 Z" fill="#000000" fill-rule="nonzero" fill-opacity="1" /><path clip-path="url(#clip380)" d="M869.505 48.0275 L869.505 51.6733 L835.234 51.6733 Q835.72 59.3701 839.852 63.421 Q844.025 67.4314 851.438 67.4314 Q855.732 67.4314 859.742 66.3781 Q863.793 65.3249 867.763 63.2184 L867.763 70.267 Q863.753 71.9684 859.54 72.8596 Q855.327 73.7508 850.992 73.7508 Q840.136 73.7508 833.776 67.4314 Q827.456 61.1119 827.456 50.3365 Q827.456 39.1965 833.452 32.6746 Q839.488 26.1121 849.696 26.1121 Q858.851 26.1121 864.158 32.0264 Q869.505 37.9003 869.505 48.0275 M862.051 45.84 Q861.97 39.7232 858.608 36.0774 Q855.286 32.4315 849.777 32.4315 Q843.539 32.4315 839.771 35.9558 Q836.044 39.4801 835.477 45.8805 L862.051 45.84 Z" fill="#000000" fill-rule="nonzero" fill-opacity="1" /><path clip-path="url(#clip380)" d="M889.111 14.324 L889.111 27.2059 L904.464 27.2059 L904.464 32.9987 L889.111 32.9987 L889.111 57.6282 Q889.111 63.1779 890.61 64.7578 Q892.149 66.3376 896.808 66.3376 L904.464 66.3376 L904.464 72.576 L896.808 72.576 Q888.18 72.576 884.898 69.3758 Q881.617 66.1351 881.617 57.6282 L881.617 32.9987 L876.148 32.9987 L876.148 27.2059 L881.617 27.2059 L881.617 14.324 L889.111 14.324 Z" fill="#000000" fill-rule="nonzero" fill-opacity="1" /><path clip-path="url(#clip380)" d="M940.963 12.096 L975.72 12.096 L975.72 18.9825 L949.146 18.9825 L949.146 36.8065 L973.127 36.8065 L973.127 43.6931 L949.146 43.6931 L949.146 72.576 L940.963 72.576 L940.963 12.096 Z" fill="#000000" fill-rule="nonzero" fill-opacity="1" /><path clip-path="url(#clip380)" d="M988.358 9.54393 L995.812 9.54393 L995.812 72.576 L988.358 72.576 L988.358 9.54393 Z" fill="#000000" fill-rule="nonzero" fill-opacity="1" /><path clip-path="url(#clip380)" d="M1010.64 54.671 L1010.64 27.2059 L1018.09 27.2059 L1018.09 54.3874 Q1018.09 60.8284 1020.6 64.0691 Q1023.12 67.2693 1028.14 67.2693 Q1034.17 67.2693 1037.66 63.421 Q1041.18 59.5726 1041.18 52.9291 L1041.18 27.2059 L1048.64 27.2059 L1048.64 72.576 L1041.18 72.576 L1041.18 65.6084 Q1038.47 69.7404 1034.86 71.7658 Q1031.3 73.7508 1026.56 73.7508 Q1018.74 73.7508 1014.69 68.8897 Q1010.64 64.0286 1010.64 54.671 M1029.39 26.1121 L1029.39 26.1121 Z" fill="#000000" fill-rule="nonzero" fill-opacity="1" /><path clip-path="url(#clip380)" d="M1101.7 27.2059 L1085.3 49.2833 L1102.55 72.576 L1093.76 72.576 L1080.56 54.752 L1067.35 72.576 L1058.56 72.576 L1076.18 48.8377 L1060.06 27.2059 L1068.85 27.2059 L1080.88 43.369 L1092.91 27.2059 L1101.7 27.2059 Z" fill="#000000" fill-rule="nonzero" fill-opacity="1" /><path clip-path="url(#clip380)" d="M1157.04 32.4315 Q1151.04 32.4315 1147.56 37.1306 Q1144.08 41.7891 1144.08 49.9314 Q1144.08 58.0738 1147.52 62.7728 Q1151 67.4314 1157.04 67.4314 Q1162.99 67.4314 1166.48 62.7323 Q1169.96 58.0333 1169.96 49.9314 Q1169.96 41.8701 1166.48 37.1711 Q1162.99 32.4315 1157.04 32.4315 M1157.04 26.1121 Q1166.76 26.1121 1172.31 32.4315 Q1177.86 38.7509 1177.86 49.9314 Q1177.86 61.0714 1172.31 67.4314 Q1166.76 73.7508 1157.04 73.7508 Q1147.28 73.7508 1141.73 67.4314 Q1136.22 61.0714 1136.22 49.9314 Q1136.22 38.7509 1141.73 32.4315 Q1147.28 26.1121 1157.04 26.1121 Z" fill="#000000" fill-rule="nonzero" fill-opacity="1" /><path clip-path="url(#clip380)" d="M1213.18 9.54393 L1213.18 15.7418 L1206.05 15.7418 Q1202.04 15.7418 1200.46 17.3622 Q1198.92 18.9825 1198.92 23.1955 L1198.92 27.2059 L1211.2 27.2059 L1211.2 32.9987 L1198.92 32.9987 L1198.92 72.576 L1191.43 72.576 L1191.43 32.9987 L1184.3 32.9987 L1184.3 27.2059 L1191.43 27.2059 L1191.43 24.0462 Q1191.43 16.471 1194.95 13.0277 Q1198.48 9.54393 1206.14 9.54393 L1213.18 9.54393 Z" fill="#000000" fill-rule="nonzero" fill-opacity="1" /><path clip-path="url(#clip380)" d="M1246.12 12.096 L1284.36 12.096 L1284.36 18.9825 L1254.3 18.9825 L1254.3 36.8875 L1283.1 36.8875 L1283.1 43.7741 L1254.3 43.7741 L1254.3 65.6895 L1285.09 65.6895 L1285.09 72.576 L1246.12 72.576 L1246.12 12.096 Z" fill="#000000" fill-rule="nonzero" fill-opacity="1" /><path clip-path="url(#clip380)" d="M1318.83 49.7694 Q1309.8 49.7694 1306.31 51.8354 Q1302.83 53.9013 1302.83 58.8839 Q1302.83 62.8538 1305.42 65.2034 Q1308.06 67.5124 1312.55 67.5124 Q1318.75 67.5124 1322.48 63.1374 Q1326.24 58.7219 1326.24 51.4303 L1326.24 49.7694 L1318.83 49.7694 M1333.7 46.6907 L1333.7 72.576 L1326.24 72.576 L1326.24 65.6895 Q1323.69 69.8214 1319.88 71.8063 Q1316.08 73.7508 1310.57 73.7508 Q1303.6 73.7508 1299.47 69.8619 Q1295.38 65.9325 1295.38 59.3701 Q1295.38 51.7138 1300.48 47.825 Q1305.63 43.9361 1315.79 43.9361 L1326.24 43.9361 L1326.24 43.2069 Q1326.24 38.0623 1322.84 35.2672 Q1319.48 32.4315 1313.36 32.4315 Q1309.47 32.4315 1305.79 33.3632 Q1302.1 34.295 1298.7 36.1584 L1298.7 29.2718 Q1302.79 27.692 1306.64 26.9223 Q1310.49 26.1121 1314.13 26.1121 Q1323.98 26.1121 1328.84 31.2163 Q1333.7 36.3204 1333.7 46.6907 Z" fill="#000000" fill-rule="nonzero" fill-opacity="1" /><path clip-path="url(#clip380)" d="M1381.7 28.9478 L1381.7 35.9153 Q1378.54 34.1734 1375.34 33.3227 Q1372.18 32.4315 1368.94 32.4315 Q1361.69 32.4315 1357.68 37.0496 Q1353.67 41.6271 1353.67 49.9314 Q1353.67 58.2358 1357.68 62.8538 Q1361.69 67.4314 1368.94 67.4314 Q1372.18 67.4314 1375.34 66.5807 Q1378.54 65.6895 1381.7 63.9476 L1381.7 70.8341 Q1378.58 72.2924 1375.22 73.0216 Q1371.9 73.7508 1368.13 73.7508 Q1357.88 73.7508 1351.85 67.3098 Q1345.81 60.8689 1345.81 49.9314 Q1345.81 38.832 1351.89 32.472 Q1358 26.1121 1368.62 26.1121 Q1372.06 26.1121 1375.34 26.8413 Q1378.62 27.5299 1381.7 28.9478 Z" fill="#000000" fill-rule="nonzero" fill-opacity="1" /><path clip-path="url(#clip380)" d="M1432.38 45.1919 L1432.38 72.576 L1424.92 72.576 L1424.92 45.4349 Q1424.92 38.994 1422.41 35.7938 Q1419.9 32.5936 1414.88 32.5936 Q1408.84 32.5936 1405.36 36.4419 Q1401.87 40.2903 1401.87 46.9338 L1401.87 72.576 L1394.38 72.576 L1394.38 9.54393 L1401.87 9.54393 L1401.87 34.2544 Q1404.55 30.163 1408.15 28.1376 Q1411.8 26.1121 1416.54 26.1121 Q1424.36 26.1121 1428.37 30.9732 Q1432.38 35.7938 1432.38 45.1919 Z" fill="#000000" fill-rule="nonzero" fill-opacity="1" /><path clip-path="url(#clip380)" d="M1502.62 44.2197 Q1505.25 45.1109 1507.72 48.0275 Q1510.24 50.9442 1512.75 56.0483 L1521.05 72.576 L1512.26 72.576 L1504.52 57.061 Q1501.53 50.9847 1498.69 48.9997 Q1495.9 47.0148 1491.04 47.0148 L1482.12 47.0148 L1482.12 72.576 L1473.94 72.576 L1473.94 12.096 L1492.41 12.096 Q1502.78 12.096 1507.89 16.4305 Q1512.99 20.7649 1512.99 29.5149 Q1512.99 35.2267 1510.32 38.994 Q1507.68 42.7613 1502.62 44.2197 M1482.12 18.8205 L1482.12 40.2903 L1492.41 40.2903 Q1498.33 40.2903 1501.32 37.5762 Q1504.36 34.8216 1504.36 29.5149 Q1504.36 24.2082 1501.32 21.5346 Q1498.33 18.8205 1492.41 18.8205 L1482.12 18.8205 Z" fill="#000000" fill-rule="nonzero" fill-opacity="1" /><path clip-path="url(#clip380)" d="M1566.34 48.0275 L1566.34 51.6733 L1532.07 51.6733 Q1532.56 59.3701 1536.69 63.421 Q1540.86 67.4314 1548.27 67.4314 Q1552.57 67.4314 1556.58 66.3781 Q1560.63 65.3249 1564.6 63.2184 L1564.6 70.267 Q1560.59 71.9684 1556.38 72.8596 Q1552.16 73.7508 1547.83 73.7508 Q1536.97 73.7508 1530.61 67.4314 Q1524.29 61.1119 1524.29 50.3365 Q1524.29 39.1965 1530.29 32.6746 Q1536.32 26.1121 1546.53 26.1121 Q1555.69 26.1121 1560.99 32.0264 Q1566.34 37.9003 1566.34 48.0275 M1558.89 45.84 Q1558.81 39.7232 1555.44 36.0774 Q1552.12 32.4315 1546.61 32.4315 Q1540.38 32.4315 1536.61 35.9558 Q1532.88 39.4801 1532.31 45.8805 L1558.89 45.84 Z" fill="#000000" fill-rule="nonzero" fill-opacity="1" /><path clip-path="url(#clip380)" d="M1599.19 49.7694 Q1590.16 49.7694 1586.68 51.8354 Q1583.19 53.9013 1583.19 58.8839 Q1583.19 62.8538 1585.79 65.2034 Q1588.42 67.5124 1592.92 67.5124 Q1599.11 67.5124 1602.84 63.1374 Q1606.61 58.7219 1606.61 51.4303 L1606.61 49.7694 L1599.19 49.7694 M1614.06 46.6907 L1614.06 72.576 L1606.61 72.576 L1606.61 65.6895 Q1604.06 69.8214 1600.25 71.8063 Q1596.44 73.7508 1590.93 73.7508 Q1583.96 73.7508 1579.83 69.8619 Q1575.74 65.9325 1575.74 59.3701 Q1575.74 51.7138 1580.84 47.825 Q1585.99 43.9361 1596.16 43.9361 L1606.61 43.9361 L1606.61 43.2069 Q1606.61 38.0623 1603.2 35.2672 Q1599.84 32.4315 1593.73 32.4315 Q1589.84 32.4315 1586.15 33.3632 Q1582.46 34.295 1579.06 36.1584 L1579.06 29.2718 Q1583.15 27.692 1587 26.9223 Q1590.85 26.1121 1594.5 26.1121 Q1604.34 26.1121 1609.2 31.2163 Q1614.06 36.3204 1614.06 46.6907 Z" fill="#000000" fill-rule="nonzero" fill-opacity="1" /><path clip-path="url(#clip380)" d="M1662.06 28.9478 L1662.06 35.9153 Q1658.9 34.1734 1655.7 33.3227 Q1652.54 32.4315 1649.3 32.4315 Q1642.05 32.4315 1638.04 37.0496 Q1634.03 41.6271 1634.03 49.9314 Q1634.03 58.2358 1638.04 62.8538 Q1642.05 67.4314 1649.3 67.4314 Q1652.54 67.4314 1655.7 66.5807 Q1658.9 65.6895 1662.06 63.9476 L1662.06 70.8341 Q1658.95 72.2924 1655.58 73.0216 Q1652.26 73.7508 1648.49 73.7508 Q1638.24 73.7508 1632.21 67.3098 Q1626.17 60.8689 1626.17 49.9314 Q1626.17 38.832 1632.25 32.472 Q1638.37 26.1121 1648.98 26.1121 Q1652.42 26.1121 1655.7 26.8413 Q1658.99 27.5299 1662.06 28.9478 Z" fill="#000000" fill-rule="nonzero" fill-opacity="1" /><path clip-path="url(#clip380)" d="M1682.4 14.324 L1682.4 27.2059 L1697.75 27.2059 L1697.75 32.9987 L1682.4 32.9987 L1682.4 57.6282 Q1682.4 63.1779 1683.9 64.7578 Q1685.44 66.3376 1690.1 66.3376 L1697.75 66.3376 L1697.75 72.576 L1690.1 72.576 Q1681.47 72.576 1678.19 69.3758 Q1674.91 66.1351 1674.91 57.6282 L1674.91 32.9987 L1669.44 32.9987 L1669.44 27.2059 L1674.91 27.2059 L1674.91 14.324 L1682.4 14.324 Z" fill="#000000" fill-rule="nonzero" fill-opacity="1" /><path clip-path="url(#clip380)" d="M1707.56 27.2059 L1715.01 27.2059 L1715.01 72.576 L1707.56 72.576 L1707.56 27.2059 M1707.56 9.54393 L1715.01 9.54393 L1715.01 18.9825 L1707.56 18.9825 L1707.56 9.54393 Z" fill="#000000" fill-rule="nonzero" fill-opacity="1" /><path clip-path="url(#clip380)" d="M1748.19 32.4315 Q1742.19 32.4315 1738.71 37.1306 Q1735.22 41.7891 1735.22 49.9314 Q1735.22 58.0738 1738.67 62.7728 Q1742.15 67.4314 1748.19 67.4314 Q1754.14 67.4314 1757.63 62.7323 Q1761.11 58.0333 1761.11 49.9314 Q1761.11 41.8701 1757.63 37.1711 Q1754.14 32.4315 1748.19 32.4315 M1748.19 26.1121 Q1757.91 26.1121 1763.46 32.4315 Q1769.01 38.7509 1769.01 49.9314 Q1769.01 61.0714 1763.46 67.4314 Q1757.91 73.7508 1748.19 73.7508 Q1738.42 73.7508 1732.87 67.4314 Q1727.36 61.0714 1727.36 49.9314 Q1727.36 38.7509 1732.87 32.4315 Q1738.42 26.1121 1748.19 26.1121 Z" fill="#000000" fill-rule="nonzero" fill-opacity="1" /><path clip-path="url(#clip380)" d="M1819.08 45.1919 L1819.08 72.576 L1811.62 72.576 L1811.62 45.4349 Q1811.62 38.994 1809.11 35.7938 Q1806.6 32.5936 1801.58 32.5936 Q1795.54 32.5936 1792.06 36.4419 Q1788.57 40.2903 1788.57 46.9338 L1788.57 72.576 L1781.08 72.576 L1781.08 27.2059 L1788.57 27.2059 L1788.57 34.2544 Q1791.25 30.163 1794.85 28.1376 Q1798.5 26.1121 1803.24 26.1121 Q1811.06 26.1121 1815.07 30.9732 Q1819.08 35.7938 1819.08 45.1919 Z" fill="#000000" fill-rule="nonzero" fill-opacity="1" /><polyline clip-path="url(#clip382)" style="stroke:#009af9; stroke-linecap:round; stroke-linejoin:round; stroke-width:4; stroke-opacity:1; fill:none" points="295.211,160.256 295.231,160.477 295.415,162.486 295.783,166.388 296.269,171.32 296.883,177.252 297.643,184.189 298.583,192.268 299.746,201.648 301.187,212.564 302.977,225.341 305.215,240.465 308.028,258.581 311.524,280.141 315.743,305.119 320.851,334.132 327.128,368.199 335.045,408.956 345.419,459.071 359.785,523.132 375.67,587.818 388.837,637.205 399.617,675.119 409.205,707.103 418.536,736.754 428.121,765.793 438.126,794.663 448.493,823.114 459.041,850.625 469.593,876.775 480.053,901.417 490.408,924.626 500.697,946.576 510.965,967.435 521.244,987.32 531.546,1006.3 541.867,1024.4 552.197,1041.66 562.528,1058.09 572.855,1073.73 583.176,1088.62 593.494,1102.8 603.81,1116.29 614.127,1129.15 624.446,1141.39 634.765,1153.06 645.085,1164.16 655.405,1174.74 665.725,1184.82 676.044,1194.41 686.364,1203.55 696.683,1212.25 707.002,1220.54 717.322,1228.44 727.642,1235.96 737.962,1243.12 748.282,1249.94 758.602,1256.43 768.922,1262.62 779.242,1268.51 789.562,1274.12 799.883,1279.47 810.203,1284.56 820.524,1289.41 830.844,1294.02 841.165,1298.42 851.486,1302.61 861.808,1306.6 872.129,1310.4 882.45,1314.02 892.772,1317.46 903.094,1320.74 913.416,1323.87 923.738,1326.85 934.06,1329.68 944.382,1332.38 954.705,1334.95 965.028,1337.4 975.351,1339.74 985.675,1341.96 995.998,1344.07 1006.32,1346.09 1016.65,1348.01 1026.97,1349.84 1037.3,1351.58 1047.62,1353.24 1057.95,1354.82 1068.27,1356.32 1078.6,1357.75 1088.92,1359.12 1099.25,1360.42 1109.58,1361.65 1119.9,1362.83 1130.23,1363.95 1140.56,1365.02 1150.89,1366.04 1161.22,1367.01 1171.55,1367.94 1181.88,1368.81 1192.21,1369.65 1202.54,1370.45 1212.87,1371.21 1223.2,1371.93 1233.54,1372.62 1243.87,1373.28 1254.2,1373.9 1264.54,1374.5 1274.87,1375.07 1285.21,1375.61 1295.55,1376.12 1305.88,1376.61 1316.22,1377.08 1326.56,1377.52 1336.9,1377.95 1347.24,1378.35 1357.58,1378.73 1367.92,1379.1 1378.27,1379.45 1388.61,1379.78 1398.95,1380.09 1409.3,1380.39 1419.64,1380.68 1429.99,1380.95 1440.34,1381.21 1450.69,1381.46 1461.03,1381.7 1471.38,1381.92 1481.74,1382.13 1492.09,1382.34 1502.44,1382.53 1512.79,1382.72 1523.15,1382.89 1533.5,1383.06 1543.86,1383.22 1554.22,1383.37 1564.57,1383.51 1574.93,1383.65 1585.29,1383.78 1595.65,1383.91 1606.01,1384.03 1616.38,1384.14 1626.74,1384.25 1637.1,1384.35 1647.47,1384.45 1657.83,1384.54 1668.2,1384.63 1678.57,1384.71 1688.93,1384.79 1699.3,1384.87 1709.67,1384.94 1720.04,1385.01 1730.41,1385.08 1740.78,1385.14 1751.15,1385.2 1761.53,1385.26 1771.9,1385.31 1782.27,1385.37 1792.65,1385.42 1803.02,1385.46 1813.4,1385.51 1823.78,1385.55 1834.15,1385.59 1844.53,1385.63 1854.91,1385.67 1865.29,1385.7 1875.67,1385.73 1886.05,1385.77 1896.43,1385.8 1906.81,1385.82 1917.19,1385.85 1927.57,1385.88 1937.95,1385.9 1948.33,1385.93 1958.72,1385.95 1969.1,1385.97 1979.48,1385.99 1989.87,1386.01 2000.25,1386.03 2010.64,1386.05 2021.02,1386.06 2031.41,1386.08 2041.8,1386.09 2052.18,1386.11 2062.57,1386.12 2072.96,1386.13 2083.34,1386.15 2093.73,1386.16 2104.12,1386.17 2114.51,1386.18 2124.9,1386.19 2135.29,1386.2 2145.68,1386.21 2156.07,1386.22 2166.46,1386.23 2176.85,1386.24 2187.24,1386.24 2197.63,1386.25 2208.02,1386.26 2218.42,1386.26 2228.81,1386.27 2239.2,1386.28 2249.59,1386.28 2259.99,1386.29 2270.38,1386.29 2280.77,1386.3 2291.17,1386.3 2292.83,1386.3 "/>
<polyline clip-path="url(#clip382)" style="stroke:#e26f46; stroke-linecap:round; stroke-linejoin:round; stroke-width:4; stroke-opacity:1; fill:none" points="295.211,1386.4 295.231,1386.37 295.415,1386.12 295.783,1385.67 296.269,1385.13 296.883,1384.54 297.643,1383.92 298.583,1383.29 299.746,1382.68 301.187,1382.1 302.977,1381.58 305.215,1381.12 308.028,1380.72 311.524,1380.36 315.743,1380.05 320.851,1379.77 327.128,1379.52 335.045,1379.33 345.419,1379.22 359.785,1379.27 375.67,1379.49 388.837,1379.75 399.617,1379.99 409.205,1380.21 418.536,1380.43 428.121,1380.66 438.126,1380.89 448.493,1381.14 459.041,1381.38 469.593,1381.61 480.053,1381.83 490.408,1382.04 500.697,1382.25 510.965,1382.44 521.244,1382.62 531.546,1382.8 541.867,1382.97 552.197,1383.13 562.528,1383.29 572.855,1383.44 583.176,1383.58 593.494,1383.71 603.81,1383.84 614.127,1383.96 624.446,1384.08 634.765,1384.19 645.085,1384.29 655.405,1384.39 665.725,1384.49 676.044,1384.58 686.364,1384.66 696.683,1384.75 707.002,1384.82 717.322,1384.9 727.642,1384.97 737.962,1385.04 748.282,1385.1 758.602,1385.16 768.922,1385.22 779.242,1385.28 789.562,1385.33 799.883,1385.38 810.203,1385.43 820.524,1385.48 830.844,1385.52 841.165,1385.56 851.486,1385.6 861.808,1385.64 872.129,1385.68 882.45,1385.71 892.772,1385.74 903.094,1385.77 913.416,1385.8 923.738,1385.83 934.06,1385.86 944.382,1385.88 954.705,1385.91 965.028,1385.93 975.351,1385.95 985.675,1385.97 995.998,1385.99 1006.32,1386.01 1016.65,1386.03 1026.97,1386.05 1037.3,1386.07 1047.62,1386.08 1057.95,1386.1 1068.27,1386.11 1078.6,1386.12 1088.92,1386.14 1099.25,1386.15 1109.58,1386.16 1119.9,1386.17 1130.23,1386.18 1140.56,1386.19 1150.89,1386.2 1161.22,1386.21 1171.55,1386.22 1181.88,1386.23 1192.21,1386.24 1202.54,1386.24 1212.87,1386.25 1223.2,1386.26 1233.54,1386.27 1243.87,1386.27 1254.2,1386.28 1264.54,1386.28 1274.87,1386.29 1285.21,1386.29 1295.55,1386.3 1305.88,1386.3 1316.22,1386.31 1326.56,1386.31 1336.9,1386.32 1347.24,1386.32 1357.58,1386.32 1367.92,1386.33 1378.27,1386.33 1388.61,1386.33 1398.95,1386.34 1409.3,1386.34 1419.64,1386.34 1429.99,1386.34 1440.34,1386.35 1450.69,1386.35 1461.03,1386.35 1471.38,1386.35 1481.74,1386.36 1492.09,1386.36 1502.44,1386.36 1512.79,1386.36 1523.15,1386.36 1533.5,1386.36 1543.86,1386.37 1554.22,1386.37 1564.57,1386.37 1574.93,1386.37 1585.29,1386.37 1595.65,1386.37 1606.01,1386.37 1616.38,1386.37 1626.74,1386.38 1637.1,1386.38 1647.47,1386.38 1657.83,1386.38 1668.2,1386.38 1678.57,1386.38 1688.93,1386.38 1699.3,1386.38 1709.67,1386.38 1720.04,1386.38 1730.41,1386.38 1740.78,1386.38 1751.15,1386.38 1761.53,1386.38 1771.9,1386.39 1782.27,1386.39 1792.65,1386.39 1803.02,1386.39 1813.4,1386.39 1823.78,1386.39 1834.15,1386.39 1844.53,1386.39 1854.91,1386.39 1865.29,1386.39 1875.67,1386.39 1886.05,1386.39 1896.43,1386.39 1906.81,1386.39 1917.19,1386.39 1927.57,1386.39 1937.95,1386.39 1948.33,1386.39 1958.72,1386.39 1969.1,1386.39 1979.48,1386.39 1989.87,1386.39 2000.25,1386.39 2010.64,1386.39 2021.02,1386.39 2031.41,1386.39 2041.8,1386.39 2052.18,1386.39 2062.57,1386.39 2072.96,1386.39 2083.34,1386.39 2093.73,1386.39 2104.12,1386.39 2114.51,1386.39 2124.9,1386.39 2135.29,1386.39 2145.68,1386.39 2156.07,1386.39 2166.46,1386.39 2176.85,1386.39 2187.24,1386.39 2197.63,1386.39 2208.02,1386.39 2218.42,1386.39 2228.81,1386.39 2239.2,1386.39 2249.59,1386.39 2259.99,1386.39 2270.38,1386.39 2280.77,1386.39 2291.17,1386.39 2292.83,1386.39 "/>
<polyline clip-path="url(#clip382)" style="stroke:#3da44d; stroke-linecap:round; stroke-linejoin:round; stroke-width:4; stroke-opacity:1; fill:none" points="295.211,1386.4 295.231,1386.4 295.415,1386.38 295.783,1386.3 296.269,1386.08 296.883,1385.66 297.643,1384.97 298.583,1383.92 299.746,1382.44 301.187,1380.44 302.977,1377.87 305.215,1374.7 308.028,1370.92 311.524,1366.65 315.743,1362.15 320.851,1357.56 327.128,1353.06 335.045,1348.83 345.419,1345.2 359.785,1342.73 375.67,1342.22 388.837,1342.89 399.617,1343.9 409.205,1345.04 418.536,1346.28 428.121,1347.63 438.126,1349.08 448.493,1350.61 459.041,1352.15 469.593,1353.68 480.053,1355.15 490.408,1356.57 500.697,1357.93 510.965,1359.24 521.244,1360.5 531.546,1361.71 541.867,1362.87 552.197,1363.97 562.528,1365.03 572.855,1366.04 583.176,1367.01 593.494,1367.93 603.81,1368.8 614.127,1369.64 624.446,1370.44 634.765,1371.19 645.085,1371.92 655.405,1372.61 665.725,1373.26 676.044,1373.89 686.364,1374.48 696.683,1375.05 707.002,1375.59 717.322,1376.1 727.642,1376.59 737.962,1377.06 748.282,1377.5 758.602,1377.93 768.922,1378.33 779.242,1378.71 789.562,1379.08 799.883,1379.43 810.203,1379.76 820.524,1380.08 830.844,1380.38 841.165,1380.66 851.486,1380.94 861.808,1381.2 872.129,1381.44 882.45,1381.68 892.772,1381.9 903.094,1382.12 913.416,1382.32 923.738,1382.52 934.06,1382.7 944.382,1382.88 954.705,1383.04 965.028,1383.2 975.351,1383.36 985.675,1383.5 995.998,1383.64 1006.32,1383.77 1016.65,1383.89 1026.97,1384.01 1037.3,1384.13 1047.62,1384.23 1057.95,1384.34 1068.27,1384.44 1078.6,1384.53 1088.92,1384.62 1099.25,1384.7 1109.58,1384.78 1119.9,1384.86 1130.23,1384.93 1140.56,1385 1150.89,1385.07 1161.22,1385.13 1171.55,1385.19 1181.88,1385.25 1192.21,1385.3 1202.54,1385.36 1212.87,1385.41 1223.2,1385.45 1233.54,1385.5 1243.87,1385.54 1254.2,1385.58 1264.54,1385.62 1274.87,1385.66 1285.21,1385.69 1295.55,1385.73 1305.88,1385.76 1316.22,1385.79 1326.56,1385.82 1336.9,1385.84 1347.24,1385.87 1357.58,1385.9 1367.92,1385.92 1378.27,1385.94 1388.61,1385.96 1398.95,1385.98 1409.3,1386 1419.64,1386.02 1429.99,1386.04 1440.34,1386.06 1450.69,1386.07 1461.03,1386.09 1471.38,1386.1 1481.74,1386.12 1492.09,1386.13 1502.44,1386.14 1512.79,1386.16 1523.15,1386.17 1533.5,1386.18 1543.86,1386.19 1554.22,1386.2 1564.57,1386.21 1574.93,1386.22 1585.29,1386.23 1595.65,1386.23 1606.01,1386.24 1616.38,1386.25 1626.74,1386.26 1637.1,1386.26 1647.47,1386.27 1657.83,1386.27 1668.2,1386.28 1678.57,1386.29 1688.93,1386.29 1699.3,1386.3 1709.67,1386.3 1720.04,1386.31 1730.41,1386.31 1740.78,1386.31 1751.15,1386.32 1761.53,1386.32 1771.9,1386.33 1782.27,1386.33 1792.65,1386.33 1803.02,1386.33 1813.4,1386.34 1823.78,1386.34 1834.15,1386.34 1844.53,1386.35 1854.91,1386.35 1865.29,1386.35 1875.67,1386.35 1886.05,1386.35 1896.43,1386.36 1906.81,1386.36 1917.19,1386.36 1927.57,1386.36 1937.95,1386.36 1948.33,1386.37 1958.72,1386.37 1969.1,1386.37 1979.48,1386.37 1989.87,1386.37 2000.25,1386.37 2010.64,1386.37 2021.02,1386.37 2031.41,1386.37 2041.8,1386.38 2052.18,1386.38 2062.57,1386.38 2072.96,1386.38 2083.34,1386.38 2093.73,1386.38 2104.12,1386.38 2114.51,1386.38 2124.9,1386.38 2135.29,1386.38 2145.68,1386.38 2156.07,1386.38 2166.46,1386.38 2176.85,1386.39 2187.24,1386.39 2197.63,1386.39 2208.02,1386.39 2218.42,1386.39 2228.81,1386.39 2239.2,1386.39 2249.59,1386.39 2259.99,1386.39 2270.38,1386.39 2280.77,1386.39 2291.17,1386.39 2292.83,1386.39 "/>
<path clip-path="url(#clip380)" d="M1966.56 374.156 L2282.17 374.156 L2282.17 166.796 L1966.56 166.796  Z" fill="#ffffff" fill-rule="evenodd" fill-opacity="1"/>
<polyline clip-path="url(#clip380)" style="stroke:#000000; stroke-linecap:round; stroke-linejoin:round; stroke-width:4; stroke-opacity:1; fill:none" points="1966.56,374.156 2282.17,374.156 2282.17,166.796 1966.56,166.796 1966.56,374.156 "/>
<polyline clip-path="url(#clip380)" style="stroke:#009af9; stroke-linecap:round; stroke-linejoin:round; stroke-width:4; stroke-opacity:1; fill:none" points="1990.09,218.636 2131.25,218.636 "/>
<path clip-path="url(#clip380)" d="M2170.61 205.962 L2164.27 223.161 L2176.98 223.161 L2170.61 205.962 M2167.98 201.356 L2173.28 201.356 L2186.45 235.916 L2181.59 235.916 L2178.44 227.05 L2162.86 227.05 L2159.71 235.916 L2154.78 235.916 L2167.98 201.356 Z" fill="#000000" fill-rule="nonzero" fill-opacity="1" /><path clip-path="url(#clip380)" d="M2189.16 229.041 L2189.16 226.957 L2198.25 217.86 L2201.03 220.638 L2195.64 226.032 L2223.85 226.032 L2223.85 229.967 L2195.64 229.967 L2201.03 235.36 L2198.25 238.138 L2189.16 229.041 M2224.25 213.069 L2224.25 215.152 L2215.15 224.249 L2212.37 221.471 L2217.77 216.078 L2189.55 216.078 L2189.55 212.143 L2217.77 212.143 L2212.37 206.749 L2215.15 203.971 L2224.25 213.069 Z" fill="#000000" fill-rule="nonzero" fill-opacity="1" /><path clip-path="url(#clip380)" d="M2235.89 219.411 L2235.89 232.073 L2243.39 232.073 Q2247.16 232.073 2248.97 230.522 Q2250.8 228.948 2250.8 225.731 Q2250.8 222.49 2248.97 220.962 Q2247.16 219.411 2243.39 219.411 L2235.89 219.411 M2235.89 205.198 L2235.89 215.615 L2242.81 215.615 Q2246.24 215.615 2247.91 214.342 Q2249.6 213.045 2249.6 210.407 Q2249.6 207.791 2247.91 206.495 Q2246.24 205.198 2242.81 205.198 L2235.89 205.198 M2231.22 201.356 L2243.16 201.356 Q2248.51 201.356 2251.4 203.578 Q2254.29 205.8 2254.29 209.897 Q2254.29 213.069 2252.81 214.944 Q2251.33 216.819 2248.46 217.282 Q2251.91 218.022 2253.81 220.383 Q2255.73 222.721 2255.73 226.24 Q2255.73 230.869 2252.58 233.393 Q2249.43 235.916 2243.62 235.916 L2231.22 235.916 L2231.22 201.356 Z" fill="#000000" fill-rule="nonzero" fill-opacity="1" /><polyline clip-path="url(#clip380)" style="stroke:#e26f46; stroke-linecap:round; stroke-linejoin:round; stroke-width:4; stroke-opacity:1; fill:none" points="1990.09,270.476 2131.25,270.476 "/>
<path clip-path="url(#clip380)" d="M2159.46 271.251 L2159.46 283.913 L2166.96 283.913 Q2170.73 283.913 2172.54 282.362 Q2174.36 280.788 2174.36 277.571 Q2174.36 274.33 2172.54 272.802 Q2170.73 271.251 2166.96 271.251 L2159.46 271.251 M2159.46 257.038 L2159.46 267.455 L2166.38 267.455 Q2169.8 267.455 2171.47 266.182 Q2173.16 264.885 2173.16 262.247 Q2173.16 259.631 2171.47 258.335 Q2169.8 257.038 2166.38 257.038 L2159.46 257.038 M2154.78 253.196 L2166.73 253.196 Q2172.07 253.196 2174.97 255.418 Q2177.86 257.64 2177.86 261.737 Q2177.86 264.909 2176.38 266.784 Q2174.9 268.659 2172.03 269.122 Q2175.48 269.862 2177.37 272.223 Q2179.29 274.561 2179.29 278.08 Q2179.29 282.709 2176.15 285.233 Q2173 287.756 2167.19 287.756 L2154.78 287.756 L2154.78 253.196 Z" fill="#000000" fill-rule="nonzero" fill-opacity="1" /><path clip-path="url(#clip380)" d="M2184.97 280.881 L2184.97 278.797 L2194.06 269.7 L2196.84 272.478 L2191.45 277.872 L2219.66 277.872 L2219.66 281.807 L2191.45 281.807 L2196.84 287.2 L2194.06 289.978 L2184.97 280.881 M2220.06 264.909 L2220.06 266.992 L2210.96 276.089 L2208.18 273.311 L2213.58 267.918 L2185.36 267.918 L2185.36 263.983 L2213.58 263.983 L2208.18 258.589 L2210.96 255.811 L2220.06 264.909 Z" fill="#000000" fill-rule="nonzero" fill-opacity="1" /><path clip-path="url(#clip380)" d="M2252.91 255.858 L2252.91 260.788 Q2250.54 258.589 2247.86 257.501 Q2245.2 256.413 2242.19 256.413 Q2236.26 256.413 2233.11 260.048 Q2229.97 263.659 2229.97 270.51 Q2229.97 277.339 2233.11 280.973 Q2236.26 284.584 2242.19 284.584 Q2245.2 284.584 2247.86 283.496 Q2250.54 282.409 2252.91 280.209 L2252.91 285.094 Q2250.45 286.76 2247.7 287.594 Q2244.97 288.427 2241.91 288.427 Q2234.06 288.427 2229.55 283.635 Q2225.04 278.821 2225.04 270.51 Q2225.04 262.177 2229.55 257.386 Q2234.06 252.571 2241.91 252.571 Q2245.01 252.571 2247.74 253.404 Q2250.5 254.214 2252.91 255.858 Z" fill="#000000" fill-rule="nonzero" fill-opacity="1" /><polyline clip-path="url(#clip380)" style="stroke:#3da44d; stroke-linecap:round; stroke-linejoin:round; stroke-width:4; stroke-opacity:1; fill:none" points="1990.09,322.316 2131.25,322.316 "/>
<path clip-path="url(#clip380)" d="M2182.65 307.698 L2182.65 312.628 Q2180.29 310.429 2177.6 309.341 Q2174.94 308.253 2171.93 308.253 Q2166.01 308.253 2162.86 311.888 Q2159.71 315.499 2159.71 322.35 Q2159.71 329.179 2162.86 332.813 Q2166.01 336.424 2171.93 336.424 Q2174.94 336.424 2177.6 335.336 Q2180.29 334.249 2182.65 332.049 L2182.65 336.934 Q2180.2 338.6 2177.44 339.434 Q2174.71 340.267 2171.66 340.267 Q2163.81 340.267 2159.29 335.475 Q2154.78 330.661 2154.78 322.35 Q2154.78 314.017 2159.29 309.226 Q2163.81 304.411 2171.66 304.411 Q2174.76 304.411 2177.49 305.244 Q2180.24 306.054 2182.65 307.698 Z" fill="#000000" fill-rule="nonzero" fill-opacity="1" /><path clip-path="url(#clip380)" d="M2187.54 332.721 L2187.54 330.637 L2196.63 321.54 L2199.41 324.318 L2194.02 329.712 L2222.23 329.712 L2222.23 333.647 L2194.02 333.647 L2199.41 339.04 L2196.63 341.818 L2187.54 332.721 M2222.63 316.749 L2222.63 318.832 L2213.53 327.929 L2210.75 325.151 L2216.15 319.758 L2187.93 319.758 L2187.93 315.823 L2216.15 315.823 L2210.75 310.429 L2213.53 307.651 L2222.63 316.749 Z" fill="#000000" fill-rule="nonzero" fill-opacity="1" /><path clip-path="url(#clip380)" d="M2234.27 308.878 L2234.27 335.753 L2239.92 335.753 Q2247.07 335.753 2250.38 332.512 Q2253.72 329.272 2253.72 322.281 Q2253.72 315.337 2250.38 312.119 Q2247.07 308.878 2239.92 308.878 L2234.27 308.878 M2229.6 305.036 L2239.2 305.036 Q2249.25 305.036 2253.95 309.226 Q2258.65 313.392 2258.65 322.281 Q2258.65 331.216 2253.92 335.406 Q2249.2 339.596 2239.2 339.596 L2229.6 339.596 L2229.6 305.036 Z" fill="#000000" fill-rule="nonzero" fill-opacity="1" /></svg>
